<?xml version="1.0" encoding="UTF-8" standalone="no"?><!-- Generator: Gravit.io --><svg xmlns="http://www.w3.org/2000/svg" xmlns:xlink="http://www.w3.org/1999/xlink" style="isolation:isolate" viewBox="-22.5 -69 520.5 349" width="520.5pt" height="349pt"><defs><clipPath id="_clipPath_6sg2wu4a2Q2tBIT47Jh74JVCdgPF6zUN"><rect x="-22.5" y="-69" width="520.5" height="349"/></clipPath></defs><g clip-path="url(#_clipPath_6sg2wu4a2Q2tBIT47Jh74JVCdgPF6zUN)"><g><g opacity="0.76"><path d=" M 13 265 Q 128.47 251.242 193 252.043 C 257.53 252.845 309.918 264.677 376 252.043 Q 442.082 239.41 498 209 L 496 -58 L -7 -63 L -10 271 L 13 265 Z " fill="rgb(105,141,242)"/></g><g opacity="0.76"><path d=" M 13 274 Q 128.47 260.242 193 261.043 C 257.53 261.845 309.918 273.677 376 261.043 Q 442.082 248.41 498 218 L 496 -49 L -7 -54 L -10 280 L 13 274 Z " fill="rgb(105,141,242)"/></g><path d=" M 0.5 259 Q 115.97 245.242 180.5 246.043 C 245.03 246.845 297.418 258.677 363.5 246.043 Q 429.582 233.41 485.5 203 L 483.5 -64 L -19.5 -69 L -22.5 265 L 0.5 259 Z " fill="rgb(105,141,242)"/></g></g></svg>